Coordinates
version=1
nRows=13
nColumns=30
inDegrees=yes

Units are S.I. units (second, meters, Newtons, ...)
Angles are in degrees.

endheader
time	floatyaw	floatroll	floatpitch	floatx	floaty	floatz	pro_sup_l	deviation_l	flexion_l	cmc_flexion_l	cmc_abduction_l	mp_flexion_l	ip_flexion_l	2mcp_flexion_l	2mcp_abduction_l	2pm_flexion_l	2md_flexion_l	3mcp_flexion_l	3mcp_abduction_l	3pm_flexion_l	3md_flexion_l	4mcp_flexion_l	4mcp_abduction_l	4pm_flexion_l	4md_flexion_l	5mcp_flexion_l	5mcp_abduction_l	5pm_flexion_l	5md_flexion_l
-0.495000	-0.845308	-4.283240	94.249796	0.007009	-0.256845	0.016528	87.441206	1.324854	0.139235	16.508487	11.497191	-16.015248	-22.682147	26.444849	6.222821	27.834903	19.386130	14.187554	5.185841	33.264542	23.201553	2.569706	-3.854013	52.501199	35.112160	-8.144046	-9.148084	56.205392	44.738088
-0.485000	-0.845308	-4.283240	94.249796	0.009364	-0.255011	0.019697	86.883135	1.842622	0.316124	14.938872	12.925287	-15.808471	-21.620736	27.820812	6.347033	26.873893	19.115111	15.376065	5.418026	32.551046	23.420149	3.755927	-3.947473	51.896002	35.258409	-5.989157	-9.028113	54.676747	44.346298
-0.475000	-0.845308	-4.283240	94.249796	0.012009	-0.253036	0.023180	86.393374	2.491176	0.420208	13.334639	14.372792	-15.568970	-20.577998	29.327138	6.489754	25.865144	18.776828	16.766458	5.640709	31.774861	23.586270	5.074563	-4.030378	51.298037	35.521579	-3.708468	-8.839246	53.348364	44.031346
-0.465000	-0.845308	-4.283240	94.249796	0.014964	-0.250976	0.026964	86.007323	3.278707	0.448189	11.725676	15.786647	-15.301799	-19.572792	30.944464	6.647614	24.843967	18.380899	18.333079	5.840997	30.973716	23.708318	6.432843	-4.086819	50.837363	35.929436	-1.354855	-8.612927	52.301447	43.793051
-0.455000	-0.845308	-4.283240	94.249796	0.018249	-0.248871	0.031036	85.735078	4.197650	0.422699	10.136020	17.122180	-15.023685	-18.628054	32.628291	6.817522	23.873378	17.958828	20.027819	6.011568	30.194307	23.808825	7.754837	-4.111594	50.602069	36.494137	1.004120	-8.380909	51.558084	43.653862
-0.445000	-0.845308	-4.283240	94.249796	0.021875	-0.246751	0.035365	85.570934	5.222898	0.387479	8.591734	18.346042	-14.752790	-17.762414	34.314142	7.000919	23.025704	17.552690	21.799907	6.152297	29.474734	23.904449	9.006164	-4.111034	50.606148	37.203023	3.281856	-8.167668	51.100423	43.658908
-0.435000	-0.845308	-4.283240	94.249796	0.025842	-0.244627	0.039902	85.507962	6.315984	0.393888	7.123505	19.438003	-14.499229	-16.982702	35.938920	7.203616	22.352268	17.194279	23.612630	6.269433	28.827509	23.993424	10.197865	-4.098154	50.787677	38.020787	5.380187	-7.988127	50.903731	43.858148
-0.425000	-0.845308	-4.283240	94.249796	0.030128	-0.242513	0.044598	85.546378	7.432810	0.484863	5.759477	20.395739	-14.261460	-16.281944	37.464226	7.431004	21.861540	16.888790	25.446673	6.372488	28.235769	24.059610	11.366374	-4.085424	51.040395	38.904052	7.213287	-7.851351	50.959483	44.279187
-0.415000	-0.845308	-4.283240	94.249796	0.034703	-0.240436	0.049430	85.691874	8.532246	0.682951	4.514210	21.240650	-14.029832	-15.644381	38.885526	7.682464	21.519273	16.615245	27.290374	6.470470	27.666479	24.089989	12.541795	-4.079672	51.263572	39.819655	8.737246	-7.766196	51.275584	44.909922
-0.405000	-0.845308	-4.283240	94.249796	0.039534	-0.238440	0.054406	85.949116	9.583620	0.987361	3.384344	22.017630	-13.794952	-15.055757	40.221098	7.949036	21.269672	16.344253	29.124910	6.569214	27.093375	24.093066	13.723762	-4.081548	51.405462	40.755285	9.966195	-7.743093	51.860613	45.703123
-0.395000	-0.845308	-4.283240	94.249796	0.044589	-0.236587	0.059551	86.317940	10.571181	1.381112	2.354708	22.783922	-13.555781	-14.512769	41.489278	8.215806	21.064012	16.060735	30.914380	6.670696	26.515865	24.104598	14.878331	-4.088787	51.479396	41.717140	10.962879	-7.789367	52.707962	46.596989
-0.385000	-0.845308	-4.283240	94.249796	0.049846	-0.234940	0.064877	86.795030	11.493880	1.843985	1.408405	23.590358	-13.322037	-14.024174	42.690277	8.467613	20.880112	15.775797	32.607538	6.774125	25.962240	24.175277	15.955773	-4.100720	51.546102	42.718058	11.808369	-7.901336	53.789313	47.535977
-0.375000	-0.845308	-4.283240	94.249796	0.055288	-0.233543	0.070379	87.378286	12.360633	2.363334	0.532396	24.464822	-13.109032	-13.601881	43.803695	8.695243	20.724226	15.521056	34.150848	6.877809	25.475837	24.347361	16.916676	-4.121334	51.673734	43.764392	12.568606	-8.060180	55.056455	48.481501
